<svg width="23" height="23" viewBox="0 0 23 23" fill="none" xmlns="http://www.w3.org/2000/svg">
<g id="ep:back">
<path id="Vector" d="M5.03125 10.7812H19.4062C19.5969 10.7812 19.7797 10.857 19.9145 10.9918C20.0493 11.1266 20.125 11.3094 20.125 11.5C20.125 11.6906 20.0493 11.8734 19.9145 12.0082C19.7797 12.143 19.5969 12.2188 19.4062 12.2188H5.03125C4.84063 12.2188 4.65781 12.143 4.52302 12.0082C4.38823 11.8734 4.3125 11.6906 4.3125 11.5C4.3125 11.3094 4.38823 11.1266 4.52302 10.9918C4.65781 10.857 4.84063 10.7812 5.03125 10.7812Z" fill="white"/>
<path id="Vector_2" d="M5.32882 11.5L11.2901 17.4599C11.4251 17.5948 11.5009 17.7779 11.5009 17.9687C11.5009 18.1596 11.4251 18.3427 11.2901 18.4776C11.1552 18.6126 10.9721 18.6884 10.7813 18.6884C10.5904 18.6884 10.4073 18.6126 10.2724 18.4776L3.80363 12.0089C3.73669 11.9421 3.68359 11.8628 3.64735 11.7755C3.61112 11.6881 3.59247 11.5945 3.59247 11.5C3.59247 11.4055 3.61112 11.3118 3.64735 11.2245C3.68359 11.1372 3.73669 11.0579 3.80363 10.9911L10.2724 4.52237C10.4073 4.38741 10.5904 4.31158 10.7813 4.31158C10.9721 4.31158 11.1552 4.38741 11.2901 4.52237C11.4251 4.65733 11.5009 4.84038 11.5009 5.03124C11.5009 5.22211 11.4251 5.40516 11.2901 5.54012L5.32882 11.5Z" fill="white"/>
</g>
</svg>
