<svg width="44" height="44" viewBox="0 0 44 44" fill="none" xmlns="http://www.w3.org/2000/svg">
<g id="radix-icons:cross-2">
<path id="Vector" fill-rule="evenodd" clip-rule="evenodd" d="M34.5605 11.8272C34.7173 11.6706 34.8417 11.4847 34.9266 11.28C35.0116 11.0753 35.0553 10.856 35.0555 10.6344C35.0556 10.4128 35.0121 10.1933 34.9274 9.98857C34.8428 9.7838 34.7186 9.59771 34.562 9.44093C34.4054 9.28415 34.2195 9.15974 34.0148 9.07482C33.8101 8.9899 33.5908 8.94612 33.3692 8.94598C33.1476 8.94585 32.9281 8.98936 32.7234 9.07403C32.5186 9.1587 32.3325 9.28287 32.1757 9.43946L22 19.6152L11.8272 9.43946C11.5106 9.12283 11.0811 8.94495 10.6333 8.94495C10.1855 8.94495 9.75609 9.12283 9.43946 9.43946C9.12283 9.75609 8.94495 10.1855 8.94495 10.6333C8.94495 11.0811 9.12283 11.5106 9.43946 11.8272L19.6152 22L9.43946 32.1728C9.28268 32.3296 9.15832 32.5157 9.07347 32.7205C8.98862 32.9254 8.94495 33.1449 8.94495 33.3667C8.94495 33.5884 8.98862 33.8079 9.07347 34.0128C9.15832 34.2176 9.28268 34.4037 9.43946 34.5605C9.75609 34.8772 10.1855 35.055 10.6333 35.055C10.8551 35.055 11.0746 35.0114 11.2794 34.9265C11.4843 34.8417 11.6704 34.7173 11.8272 34.5605L22 24.3848L32.1757 34.5605C32.4924 34.8768 32.9217 35.0543 33.3692 35.054C33.8167 35.0537 34.2458 34.8757 34.562 34.5591C34.8782 34.2424 35.0557 33.8131 35.0555 33.3656C35.0552 32.9181 34.8772 32.489 34.5605 32.1728L24.3848 22L34.5605 11.8272Z" fill="#E61580"/>
</g>
</svg>
