<svg width="28" height="28" viewBox="0 0 28 28" fill="none" xmlns="http://www.w3.org/2000/svg">
<g id="emojione:flag-for-cambodia" clip-path="url(#clip0_1_309)">
<path id="Vector" d="M0.875 14C0.875 16.5813 1.61875 18.9875 2.8875 21H25.0688C26.3375 18.9875 27.0813 16.5813 27.0813 14C27.0813 11.4187 26.3375 9.0125 25.0688 7H2.8875C1.61875 9.0125 0.875 11.4187 0.875 14Z" fill="#ED4C5C"/>
<path id="Vector_2" d="M25.1125 7C22.7937 3.325 18.6812 0.875 14 0.875C9.31875 0.875 5.20625 3.325 2.8875 7H25.1125ZM2.8875 21C5.20625 24.675 9.31875 27.125 14 27.125C18.6812 27.125 22.7937 24.675 25.1125 21H2.8875Z" fill="#2A5F9E"/>
<path id="Vector_3" d="M20.0813 15.6188V14.2625C20.125 14.0875 20.2562 13.9562 20.3875 13.9125V12.6875C20.2562 12.6875 20.1687 12.8625 20.1687 12.9062V12.3812C20.125 12.3375 20.0375 12.3375 19.95 12.3812V12.5125H19.6875V11.9437C19.6 11.9437 19.6 12.2062 19.425 12.2062C19.3375 12.2062 19.3375 12.075 19.3812 11.9875C19.425 11.9 19.4688 11.7687 19.425 11.5938C19.3813 11.725 19.25 11.8125 19.25 11.6813C19.2937 11.5063 19.425 11.4625 19.3375 11.2C19.2938 11.4188 19.1625 11.4187 19.2063 11.2875C19.25 11.1562 19.3375 11.0687 19.2063 10.85C19.1625 11.0687 19.075 11.0687 19.075 10.9375C19.075 10.7188 19.075 10.5 18.8125 10.4125C18.8125 10.4125 18.8125 10.1937 18.6813 10.1937C18.55 10.1937 18.55 10.4125 18.55 10.4125C18.2875 10.5 18.2875 10.7188 18.2875 10.9375C18.2875 11.0687 18.2 11.1125 18.1562 10.85C18.0688 11.0687 18.1562 11.1125 18.1562 11.2875C18.2 11.4187 18.0688 11.4188 18.025 11.2C17.9375 11.4625 18.0688 11.5063 18.1125 11.6813C18.1563 11.7688 17.9812 11.725 17.9375 11.55C17.85 11.7687 17.9375 11.9 17.9812 11.9437C18.025 12.0312 18.025 12.1625 17.9375 12.1625C17.7625 12.1625 17.7625 11.9 17.675 11.9V12.95H15.6188V12.0312C15.4875 12.075 15.4437 12.2062 15.4437 12.2062V12.3812H15.3125C15.3125 12.3812 15.225 12.3812 15.225 12.2062C15.225 12.0312 15.2688 11.9437 15.4 11.9437V11.5938C15.4 11.5938 15.0938 11.6375 15.0938 11.9875V11.6813C15.0062 11.6813 15.0062 11.8125 15.0062 12.1188H14.9187V11.8125C14.9187 11.6375 15.0938 11.6375 15.0938 11.5062C15.0938 11.5062 15.1375 11.2875 15.05 11.2C14.9625 11.4625 14.875 11.4187 14.875 11.2875C14.875 11.2 14.9625 11.1125 15.0938 10.85C15.1375 10.7625 15.0938 10.5437 15.05 10.4562C15.0063 10.675 15.0062 10.7625 14.9187 10.7625C14.875 10.7625 14.8313 10.7187 14.8313 10.6312C14.8313 10.5 14.9188 10.4563 14.9625 10.325C15.0063 10.1938 14.9625 10.0625 14.9187 9.975C14.875 10.1937 14.875 10.2375 14.8313 10.2375C14.6563 10.1937 14.8313 9.93125 14.875 9.84375C14.9187 9.7125 14.8313 9.625 14.8313 9.625C14.7875 9.8 14.7437 9.8 14.7 9.8C14.6125 9.8 14.6563 9.66875 14.7438 9.58125C14.7875 9.5375 14.7875 9.45 14.7438 9.3625C14.7 9.49375 14.5688 9.49375 14.6125 9.40625L14.6562 9.14375H14.525V8.575H14.35C14.35 8.44375 14.2625 8.3125 14.0875 8.3125C13.9125 8.3125 13.8688 8.4875 13.825 8.575H13.5625V9.14375H13.4313L13.475 9.45C13.475 9.5375 13.3875 9.5375 13.3438 9.40625C13.3 9.49375 13.2562 9.58125 13.3438 9.625C13.4313 9.7125 13.4313 9.84375 13.3875 9.84375C13.3438 9.84375 13.3 9.84375 13.2562 9.66875C13.2562 9.66875 13.1688 9.8 13.2125 9.8875C13.2563 9.93125 13.4312 10.1938 13.2562 10.2812C13.1687 10.2812 13.1688 10.1937 13.1688 10.0187C13.0813 10.1062 13.0375 10.2375 13.125 10.3688C13.1687 10.5 13.2562 10.5437 13.2562 10.675C13.2562 10.7625 13.2125 10.8063 13.1688 10.8063C13.0813 10.8063 13.0375 10.7188 13.0375 10.5C12.9937 10.5875 12.95 10.8062 12.9938 10.8937C13.125 11.1125 13.2125 11.2 13.2125 11.3312C13.2125 11.4187 13.0812 11.5063 13.0375 11.2438C12.9937 11.3313 12.9938 11.55 12.9938 11.55C12.9938 11.6812 13.1688 11.6813 13.1688 11.8563V12.2062H13.0812C13.0812 11.9 13.0813 11.7687 12.95 11.7687V12.075C12.95 11.725 12.6437 11.6813 12.6437 11.6813V12.0312C12.775 12.0312 12.8187 12.1188 12.8187 12.2938C12.8187 12.4688 12.7313 12.4688 12.7313 12.4688H12.5563V12.2938C12.5563 12.2938 12.5125 12.1625 12.3812 12.1188V13.0375H10.3688V11.9875C10.2813 11.9875 10.2813 12.25 10.1063 12.25C10.0188 12.25 10.0187 12.1188 10.0625 12.0312C10.1063 11.9437 10.15 11.8125 10.1063 11.6375C10.0625 11.8125 9.93125 11.8562 9.93125 11.7687C9.975 11.5937 10.1062 11.55 10.0187 11.2875C9.975 11.5062 9.84375 11.5062 9.8875 11.375C9.93125 11.2438 10.0188 11.1562 9.8875 10.9375C9.84375 11.1562 9.75625 11.1563 9.75625 11.025C9.75625 10.8063 9.75625 10.5875 9.49375 10.5C9.49375 10.5 9.49375 10.2812 9.3625 10.2812C9.23125 10.2812 9.1875 10.4125 9.1875 10.4125C8.925 10.5 8.925 10.7188 8.925 10.9375C8.925 11.0687 8.8375 11.1125 8.79375 10.85C8.70625 11.0687 8.79375 11.1125 8.79375 11.2875C8.8375 11.4187 8.70625 11.4188 8.6625 11.2C8.575 11.4625 8.70625 11.5063 8.75 11.6813C8.79375 11.7688 8.61875 11.725 8.575 11.55C8.4875 11.7687 8.575 11.9 8.61875 11.9437C8.6625 12.0312 8.6625 12.1625 8.575 12.1625C8.4 12.1625 8.4 11.9 8.3125 11.9V12.4688H8.09375V12.3375C8.00625 12.2938 7.91875 12.2938 7.875 12.3375V12.8625C7.875 12.8625 7.7875 12.6437 7.65625 12.6437V13.9125C7.74375 13.9562 7.91875 14.0875 7.9625 14.2625V15.6188C7.91875 15.75 7.7875 15.925 7.7 15.9688H20.4313C20.2563 15.925 20.125 15.7938 20.0813 15.6188Z" fill="#E2E2E2"/>
<g id="Group">
<path id="Vector_4" d="M21.7438 18.4187V17.5875H21.3063V16.8875H20.9125V16.3625H20.6938V15.9688H7.30625V16.3625H7.0875V16.8875H6.69375V17.5875H6.25625V18.4187H5.8625V19.25H22.1375V18.4187H21.7438Z" fill="white"/>
<path id="Vector_5" d="M9.975 15.9687C9.8875 15.925 9.7125 15.7937 9.7125 15.6187V14.175L9.84375 13.9562H9.8875V13.5187C9.8 13.5625 9.75625 13.6062 9.66875 13.65C9.66875 13.6062 9.625 13.5625 9.625 13.5187C9.66875 13.475 9.84375 13.2562 9.8875 13.1687V12.8187C9.84375 12.8187 9.8 12.8625 9.75625 12.8625C9.84375 12.775 9.8875 12.6875 9.8875 12.6V12.25C9.8 12.25 9.66875 12.3375 9.625 12.4687C9.625 12.3812 9.58125 12.2937 9.5375 12.2062C9.58125 12.1625 9.7125 12.0312 9.7125 11.9437V11.725C9.625 11.725 9.58125 11.7687 9.49375 11.8562C9.49375 11.8125 9.49375 11.8125 9.45 11.7687L9.58125 11.5937V11.375C9.5375 11.375 9.49375 11.4187 9.45 11.4625C9.45 11.4187 9.40625 11.375 9.40625 11.3312L9.45 11.2V11.025C9.40625 11.025 9.40625 11.025 9.3625 11.0687C9.3625 11.025 9.31875 10.9812 9.31875 10.9812H9.3625L9.49375 10.8937V10.7625C9.45 10.7625 9.45 10.7625 9.40625 10.8062C9.3625 10.7187 9.31875 10.675 9.23125 10.6312C9.14375 10.675 9.1 10.7187 9.05625 10.8062C9.0125 10.7625 9.0125 10.7625 8.96875 10.7625V10.8937L9.1 10.9812H9.1875C9.1875 11.025 9.14375 11.025 9.14375 11.0687C9.1 11.025 9.1 11.025 9.05625 11.025V11.2L9.1 11.3312C9.1 11.375 9.05625 11.375 9.05625 11.4187C9.0125 11.3312 8.96875 11.3312 8.925 11.3312V11.55L9.05625 11.725C9.05625 11.7687 9.05625 11.7687 9.0125 11.8125C8.96875 11.725 8.88125 11.6812 8.79375 11.6812V11.9C8.79375 11.9875 8.925 12.1187 8.96875 12.1625C8.925 12.25 8.925 12.3375 8.88125 12.425C8.79375 12.2937 8.70625 12.2062 8.61875 12.2062V12.5562C8.61875 12.6 8.70625 12.7312 8.75 12.8187C8.70625 12.775 8.6625 12.775 8.61875 12.775V13.125C8.6625 13.2125 8.79375 13.3875 8.88125 13.4312C8.88125 13.475 8.8375 13.5187 8.8375 13.5625C8.79375 13.6062 8.75 13.5625 8.6625 13.5625V14L8.79375 14.2187V15.6625C8.79375 15.7937 8.61875 15.925 8.53125 16.0125H8.75V19.25H9.75625V15.9687H9.975ZM14.7438 12.3812V11.9437C14.5688 11.9875 14.4813 12.1187 14.4375 12.2062C14.4375 12.1187 14.3938 12.0312 14.35 11.9437C14.3938 11.7687 14.4375 11.6812 14.525 11.5937H14.5687V11.2C14.4375 11.2437 14.35 11.3312 14.3063 11.4187C14.3063 11.375 14.2625 11.2437 14.2188 11.1562L14.35 10.9375H14.525V10.5437C14.3938 10.5875 14.3063 10.675 14.3063 10.7625C14.3063 10.7187 14.2625 10.5875 14.2188 10.5L14.4375 10.325V10.0625C14.35 10.1062 14.2188 10.1062 14.2188 10.2812C14.2188 10.1937 14.175 10.1062 14.175 10.0625L14.3938 9.88749V9.62499C14.3063 9.62499 14.2188 9.66874 14.2188 9.75624C14.2188 9.71249 14.175 9.66874 14.175 9.62499L14.3063 9.53749V9.31874C14.2625 9.31874 14.175 9.36249 14.175 9.44999C14.175 9.31874 14.1312 9.31874 14.0437 9.27499C14 9.31874 13.9563 9.31874 13.9125 9.44999C13.9125 9.36249 13.825 9.36249 13.7813 9.31874V9.53749L13.9125 9.62499C13.9125 9.66874 13.8688 9.71249 13.8688 9.75624C13.8688 9.62499 13.7812 9.62499 13.6937 9.62499V9.84374L13.9125 10.0187C13.8688 10.0625 13.8688 10.15 13.8688 10.2375C13.8688 10.0625 13.7375 10.0625 13.65 10.0187V10.325L13.825 10.5C13.7813 10.5875 13.7375 10.7187 13.7375 10.7625C13.6938 10.675 13.6063 10.5875 13.5188 10.5437V10.9375H13.5625L13.6937 11.1562C13.65 11.2437 13.6063 11.3312 13.6063 11.4187C13.5625 11.3312 13.475 11.2437 13.3438 11.2V11.5937H13.3875C13.475 11.6375 13.5625 11.7687 13.5625 11.9437V12.1625C13.5188 12.075 13.3875 11.9437 13.2562 11.9V12.3375H13.3438C13.475 12.5125 13.5188 12.775 13.5188 12.95L13.3875 12.8187V13.2562H13.825C13.7375 13.3875 13.6937 13.5187 13.6937 13.6937C13.5625 13.65 13.5625 13.6062 13.4313 13.5625V14L13.5188 14.1312V15.6625C13.5188 15.7937 13.3438 15.925 13.2562 16.0125H13.475V19.25H14.4812V15.9687H14.7C14.6125 15.925 14.4375 15.7937 14.4375 15.6187V14.0875L14.525 13.9562V13.5187C14.35 13.5625 14.35 13.6062 14.3063 13.7375C14.3063 13.6062 14.2625 13.4312 14.175 13.3H14.6125V12.8625C14.5688 12.9062 14.525 12.9062 14.4812 12.95C14.4812 12.7312 14.525 12.5125 14.6563 12.3375C14.7 12.3812 14.7438 12.3812 14.7438 12.3812ZM19.425 15.9687C19.3375 15.925 19.1625 15.7937 19.1625 15.6187V14.175L19.2937 13.9562H19.3375V13.5187C19.25 13.5625 19.2063 13.6062 19.1188 13.6062C19.1188 13.5625 19.075 13.5187 19.075 13.475C19.1187 13.3875 19.2938 13.2562 19.3375 13.1687V12.8187C19.2938 12.8187 19.25 12.8625 19.2063 12.8625C19.2938 12.775 19.3375 12.6437 19.3375 12.6V12.25C19.25 12.25 19.1187 12.3375 19.075 12.4687C19.075 12.3812 19.0313 12.2937 18.9875 12.2062C19.0313 12.1625 19.1625 12.0312 19.1625 11.9437V11.725C19.075 11.725 19.0312 11.7687 18.9438 11.8562C18.9438 11.8125 18.9438 11.8125 18.9 11.7687L19.0313 11.5937V11.375C18.9875 11.375 18.9438 11.4187 18.9 11.4625C18.9 11.4187 18.8562 11.375 18.8562 11.375L18.9 11.2437V11.0687C18.8563 11.0687 18.8563 11.0687 18.8125 11.1125C18.8125 11.0687 18.7688 11.025 18.7688 11.025H18.8125L18.9438 10.9375V10.8062C18.9 10.8062 18.9 10.8062 18.8562 10.85C18.8125 10.7625 18.7688 10.7187 18.6813 10.675C18.5938 10.7187 18.55 10.7625 18.5063 10.85C18.4625 10.8062 18.4625 10.8062 18.4187 10.8062V10.9375L18.55 11.025H18.5938C18.5938 11.0687 18.55 11.0687 18.55 11.1125C18.5063 11.0687 18.5063 11.0687 18.4625 11.0687V11.2437L18.5063 11.375C18.4625 11.4187 18.4625 11.4187 18.4625 11.5062C18.4188 11.4187 18.375 11.4187 18.3313 11.4187V11.6375L18.4625 11.8125C18.4625 11.8562 18.4625 11.8562 18.4187 11.9C18.375 11.8125 18.3313 11.8125 18.2438 11.7687V11.9875C18.2438 12.075 18.375 12.2062 18.4187 12.25C18.375 12.3375 18.375 12.425 18.3313 12.5125C18.2438 12.3812 18.1562 12.2937 18.0688 12.2937V12.6437C18.0688 12.6875 18.1562 12.8187 18.2 12.9062C18.1562 12.8625 18.1125 12.8625 18.0688 12.8625V13.2125C18.1125 13.3 18.2875 13.475 18.3313 13.5625C18.3313 13.6062 18.2875 13.65 18.2875 13.6937C18.2438 13.65 18.1562 13.6062 18.0688 13.5625V14H18.1125L18.2438 14.2187V15.6625C18.2438 15.7937 18.0688 15.925 17.9812 16.0125H18.2V19.25H19.2063V15.9687H19.425Z" fill="white"/>
</g>
</g>
<defs>
<clipPath id="clip0_1_309">
<rect width="28" height="28" fill="white"/>
</clipPath>
</defs>
</svg>
